<?xml version="1.0" encoding="UTF-8" standalone="no"?><!DOCTYPE svg PUBLIC "-//W3C//DTD SVG 1.1//EN" "http://www.w3.org/Graphics/SVG/1.1/DTD/svg11.dtd"><svg width="100%" height="100%" viewBox="0 0 7796 3959" version="1.1" xmlns="http://www.w3.org/2000/svg" xmlns:xlink="http://www.w3.org/1999/xlink" xml:space="preserve" xmlns:serif="http://www.serif.com/" style="fill-rule:evenodd;clip-rule:evenodd;"><rect x="-91.667" y="-354.167" width="8225" height="4912.5" style="fill:#fff;"/><g id="レイヤー1"><g id="node1"><circle cx="4430.62" cy="497.479" r="423.142" style="fill:#f03e20;stroke:#000;stroke-width:20.83px;"/><path d="M4754.42,769.781l1066.42,959.386l587.5,575l633.334,808.333" style="fill:none;stroke:#000;stroke-width:20.83px;stroke-linecap:round;stroke-linejoin:round;stroke-miterlimit:1.5;"/><path d="M6130.38,2402.31l0,627.647" style="fill:none;stroke:#000;stroke-width:20.83px;stroke-linecap:round;stroke-linejoin:round;stroke-miterlimit:1.5;"/><path d="M4570.01,2340.08l280.823,735.705" style="fill:none;stroke:#000;stroke-width:20.83px;stroke-linecap:round;stroke-linejoin:round;stroke-miterlimit:1.5;"/><text x="4261.96px" y="570.325px" style="font-family:'Times-Roman', 'Times';font-size:242.825px;">CA</text></g><g id="node11" serif:id="node1"><circle cx="2176.84" cy="1963.07" r="423.142" style="fill:#f03e20;stroke:#000;stroke-width:20.83px;"/><path d="M1853.86,2236.33l-1041.36,921.999" style="fill:none;stroke:#000;stroke-width:20.83px;stroke-linecap:round;stroke-linejoin:round;stroke-miterlimit:1.5;"/><path d="M2019.91,2356.11l-294.702,756.39" style="fill:none;stroke:#000;stroke-width:20.83px;stroke-linecap:round;stroke-linejoin:round;stroke-miterlimit:1.5;"/><text x="2008.18px" y="2035.92px" style="font-family:'Times-Roman', 'Times';font-size:242.825px;">CA</text></g><g id="node12" serif:id="node1"><circle cx="4443.98" cy="1962.78" r="423.142" style="fill:#f03e20;stroke:#000;stroke-width:20.83px;"/><path d="M4287.78,2356.11l-266.948,673.845" style="fill:none;stroke:#000;stroke-width:20.83px;stroke-linecap:round;stroke-linejoin:round;stroke-miterlimit:1.5;"/><text x="4300.39px" y="2042.81px" style="font-family:'Times-Roman', 'Times';font-size:242.825px;">CS</text></g><g id="node13" serif:id="node1"><circle cx="6130.38" cy="1979.17" r="423.142" style="fill:#d9d9d9;stroke:#000;stroke-width:20.83px;"/><text x="5981.75px" y="2059.61px" style="font-family:'Times-Roman', 'Times';font-size:242.825px;">NS</text></g><g id="node14" serif:id="node1"><circle cx="2738.71" cy="3462.5" r="423.142" style="fill:#d9d9d9;stroke:#000;stroke-width:20.83px;"/><text x="2575.65px" y="3524.5px" style="font-family:'Times-Roman', 'Times';font-size:242.825px;">NS</text></g><g id="node15" serif:id="node1"><circle cx="1622.04" cy="3462.5" r="423.142" style="fill:#f03e20;stroke:#000;stroke-width:20.83px;"/><text x="1478.46px" y="3542.53px" style="font-family:'Times-Roman', 'Times';font-size:242.825px;">CS</text></g><g id="node16" serif:id="node1"><circle cx="494.428" cy="3444.76" r="423.142" style="fill:#f03e20;stroke:#000;stroke-width:20.83px;"/><text x="325.761px" y="3517.61px" style="font-family:'Times-Roman', 'Times';font-size:242.825px;">CA</text></g><g id="node17" serif:id="node1"><circle cx="3876.61" cy="3444.76" r="423.142" style="fill:#f03e20;stroke:#000;stroke-width:20.83px;"/><text x="3707.94px" y="3517.61px" style="font-family:'Times-Roman', 'Times';font-size:242.825px;">CA</text></g><g id="node18" serif:id="node1"><circle cx="4998.09" cy="3444.76" r="423.142" style="fill:#f03e20;stroke:#000;stroke-width:20.83px;"/><text x="4854.5px" y="3524.8px" style="font-family:'Times-Roman', 'Times';font-size:242.825px;">CS</text></g><g id="node19" serif:id="node1"><circle cx="6131.38" cy="3444.76" r="423.142" style="fill:#d9d9d9;stroke:#000;stroke-width:20.83px;"/><text x="5962.71px" y="3517.61px" style="font-family:'Times-Roman', 'Times';font-size:242.825px;">CA</text></g><g id="node110" serif:id="node1"><circle cx="7293.88" cy="3453.1" r="423.142" style="fill:#d9d9d9;stroke:#000;stroke-width:20.83px;"/><text x="7117.12px" y="3524.5px" style="font-family:'Times-Roman', 'Times';font-size:242.825px;">NA</text></g><path d="M4075,720.833l-1533.33,1008.33" style="fill:none;stroke:#000;stroke-width:20.83px;stroke-linecap:round;stroke-linejoin:round;stroke-miterlimit:1.5;"/><path d="M4430.62,920.621l13.35,619.013" style="fill:none;stroke:#000;stroke-width:20.83px;stroke-linecap:round;stroke-linejoin:round;stroke-miterlimit:1.5;"/><path d="M2404.17,2340.08l254.166,699.274" style="fill:none;stroke:#000;stroke-width:20.83px;stroke-linecap:round;stroke-linejoin:round;stroke-miterlimit:1.5;"/><g><path d="M3797.43,2400.36c-1.388,0.339 -3.826,1.253 -5.417,2.065c-2.37,1.185 -3.555,2.099 -6.331,4.875c-2.065,2.032 -4.198,4.537 -5.315,6.263c-2.877,4.469 -23.054,40.016 -100.276,176.55c-26.846,47.463 -58.026,102.646 -69.299,122.552c-11.274,19.94 -20.888,37.172 -21.362,38.289c-2.675,6.331 -2.438,13.339 0.643,18.924c0.508,0.948 2.167,2.912 3.656,4.401c3.081,3.047 5.992,4.706 10.36,5.925l2.572,0.677l199.029,-0.068l199.063,-0.101l2.742,-0.914c12.289,-4.198 16.724,-16.894 10.291,-29.724c-0.71,-1.456 -30.434,-53.49 -66.049,-115.68c-35.615,-62.156 -78.135,-136.398 -94.487,-164.971c-16.385,-28.573 -30.773,-53.49 -32.026,-55.352c-3.995,-5.992 -9.073,-10.528 -14.185,-12.627c-4.232,-1.761 -9.208,-2.167 -13.609,-1.084Zm54.403,115.443c26.847,46.82 68.352,119.268 92.219,160.976l43.435,75.834l-91.813,0.101c-50.51,0.034 -133.182,0.034 -183.726,0l-91.914,-0.101l56.401,-99.701c107.927,-190.836 126.107,-222.862 126.411,-222.489c0.136,0.135 22.175,38.56 48.987,85.38Z" style="fill-rule:nonzero;"/><path d="M3800.44,2514.31c-0.474,0.102 -2.065,0.474 -3.521,0.847c-13.203,3.317 -23.901,16.047 -23.901,28.336c-0,1.557 0.745,8.599 1.693,15.606c0.914,7.008 3.825,29.013 6.432,48.954c6.805,51.966 6.737,51.356 7.312,53.523c1.422,5.586 4.774,10.055 9.175,12.221c2.268,1.118 2.911,1.287 5.687,1.388c5.146,0.237 8.328,-1.015 11.782,-4.604c3.351,-3.555 4.875,-7.583 5.958,-15.708c0.372,-2.844 2.065,-15.641 3.758,-28.472c1.659,-12.796 4.435,-33.718 6.093,-46.549c1.693,-12.797 3.386,-25.594 3.758,-28.437c0.813,-6.162 0.847,-10.326 0.136,-13.102c-2.776,-10.935 -12.188,-20.279 -23.461,-23.224c-2.539,-0.677 -9.005,-1.117 -10.901,-0.779Z" style="fill-rule:nonzero;"/><path d="M3801.53,2688.15c-11.68,1.49 -20.109,12.56 -18.687,24.579c0.677,5.619 2.911,10.19 6.906,13.88c3.859,3.622 8.023,5.416 13.237,5.755c6.331,0.372 11.375,-1.591 16.081,-6.331c4.536,-4.536 6.499,-9.242 6.533,-15.742c0.034,-3.927 -0.44,-6.195 -1.963,-9.479c-4.063,-8.836 -12.831,-13.846 -22.107,-12.662Z" style="fill-rule:nonzero;"/></g></g></svg>