<?xml version="1.0" encoding="UTF-8" standalone="no"?><!DOCTYPE svg PUBLIC "-//W3C//DTD SVG 1.1//EN" "http://www.w3.org/Graphics/SVG/1.1/DTD/svg11.dtd"><svg width="100%" height="100%" viewBox="0 0 1871 950" version="1.1" xmlns="http://www.w3.org/2000/svg" xmlns:xlink="http://www.w3.org/1999/xlink" xml:space="preserve" xmlns:serif="http://www.serif.com/" style="fill-rule:evenodd;clip-rule:evenodd;"><g id="graph0"><g id="node1"><circle cx="1063.35" cy="119.395" r="101.554" style="fill:none;stroke:#a020f0;stroke-width:4.17px;"/><text x="1022.87px" y="136.878px" style="font-family:'Times-Roman', 'Times';font-size:58.278px;">CA</text></g><g id="node2"><circle cx="522.2" cy="472.79" r="101.554" style="fill:none;stroke:#a020f0;stroke-width:4.17px;"/><text x="481.722px" y="490.274px" style="font-family:'Times-Roman', 'Times';font-size:58.278px;">CA</text></g><g id="edge1"><path d="M977.602,175.392c-101.329,66.172 -268.903,175.606 -370.056,241.664" style="fill:none;fill-rule:nonzero;stroke:#a020f0;stroke-width:4.17px;"/></g><g id="node3"><circle cx="1063.35" cy="472.79" r="94.456" style="fill:none;stroke:#a020f0;stroke-width:4.17px;"/><text x="1027.71px" y="490.274px" style="font-family:'Times-Roman', 'Times';font-size:58.278px;">CS</text></g><g id="edge2"><path d="M1063.35,221.612l-0,155.253" style="fill:none;fill-rule:nonzero;stroke:#a020f0;stroke-width:4.17px;"/></g><g id="node4"><circle cx="1471.29" cy="472.79" r="96.795" style="fill:none;stroke:#000;stroke-width:4.17px;"/><text x="1434.04px" y="490.274px" style="font-family:'Times-Roman', 'Times';font-size:58.278px;">NS</text></g><g id="edge3"><path d="M1142,187.533c73.627,63.782 182.82,158.375 254.998,220.902" style="fill:none;fill-rule:nonzero;stroke:#000;stroke-width:4.17px;"/></g><g id="node5"><circle cx="118.42" cy="828.397" r="101.554" style="fill:none;stroke:#a020f0;stroke-width:4.17px;"/><text x="77.942px" y="845.88px" style="font-family:'Times-Roman', 'Times';font-size:58.278px;">CA</text></g><g id="edge4"><path d="M444.347,541.355c-71.5,62.97 -176.888,155.785 -248.313,218.688" style="fill:none;fill-rule:nonzero;stroke:#a020f0;stroke-width:4.17px;"/></g><g id="node6"><circle cx="388.995" cy="828.397" r="94.456" style="fill:none;stroke:#a020f0;stroke-width:4.17px;"/><text x="353.354px" y="845.88px" style="font-family:'Times-Roman', 'Times';font-size:58.278px;">CS</text></g><g id="edge5"><path d="M485.801,569.962c-19.72,52.644 -43.921,117.253 -63.193,168.7" style="fill:none;fill-rule:nonzero;stroke:#a020f0;stroke-width:4.17px;"/></g><g id="node7"><circle cx="655.406" cy="828.397" r="96.795" style="fill:none;stroke:#000;stroke-width:4.17px;"/><text x="618.157px" y="845.88px" style="font-family:'Times-Roman', 'Times';font-size:58.278px;">NS</text></g><g id="edge6"><path d="M558.599,569.962c19.412,51.821 43.167,115.237 62.286,166.279" style="fill:none;fill-rule:nonzero;stroke:#000;stroke-width:4.17px;"/></g><g id="node8"><circle cx="930.143" cy="828.397" r="101.554" style="fill:none;stroke:#a020f0;stroke-width:4.17px;"/><text x="889.665px" y="845.88px" style="font-family:'Times-Roman', 'Times';font-size:58.278px;">CA</text></g><g id="edge7"><path d="M1029.74,562.525c-19.422,51.85 -43.852,117.067 -63.654,169.933" style="fill:none;fill-rule:nonzero;stroke:#a020f0;stroke-width:4.17px;"/><text x="959.243px" y="629.627px" style="font-family:'Times-Roman', 'Times';font-size:58.278px;">!!</text></g><g id="node9"><circle cx="1200.72" cy="828.397" r="94.456" style="fill:none;stroke:#a020f0;stroke-width:4.17px;"/><text x="1165.08px" y="845.88px" style="font-family:'Times-Roman', 'Times';font-size:58.278px;">CS</text></g><g id="edge8"><path d="M1098.01,562.525c20.823,53.907 47.229,122.264 68.051,176.166" style="fill:none;fill-rule:nonzero;stroke:#a020f0;stroke-width:4.17px;"/></g><g id="node10"><circle cx="1471.29" cy="828.397" r="101.554" style="fill:none;stroke:#000;stroke-width:4.17px;"/><text x="1430.81px" y="845.88px" style="font-family:'Times-Roman', 'Times';font-size:58.278px;">CA</text></g><g id="edge9"><path d="M1471.29,571.847l0,154.312" style="fill:none;fill-rule:nonzero;stroke:#000;stroke-width:4.17px;"/></g><g id="node11"><circle cx="1750.19" cy="828.397" r="103.894" style="fill:none;stroke:#000;stroke-width:4.17px;"/><text x="1708.11px" y="845.88px" style="font-family:'Times-Roman', 'Times';font-size:58.278px;">NA</text></g><g id="edge10"><path d="M1531.81,549.952c45.499,58.013 107.714,137.339 154.102,196.485" style="fill:none;fill-rule:nonzero;stroke:#000;stroke-width:4.17px;"/></g></g></svg>